<svg xmlns="http://www.w3.org/2000/svg" style="display: none;"><symbol id="rod" viewBox="0 -6 511.99958 511"><title>rod</title><path d="m124.953125 422.539062c-6.65625 6.660157-6.65625 17.457032.007813 24.117188 6.660156 6.65625 17.457031 6.65625 24.113281-.003906s6.65625-17.453125 0-24.113282c-6.65625-6.660156-17.453125-6.660156-24.113281-.003906-.003907 0-.003907.003906-.007813.003906zm0 0"/><path d="m494.945312 373.699219v-332.609375c7.480469-10.148438 6.390626-24.242188-2.554687-33.117188-9.984375-9.964844-26.152344-9.964844-36.136719 0l-319.234375 318.117188-6.035156-6.027344-30.140625 30.140625-12.058594-12.046875c-13.167968-13.46875-34.761718-13.714844-48.226562-.546875-13.46875 13.167969-13.714844 34.761719-.546875 48.230469.179687.179687.359375.363281.539062.539062l12.058594 12.058594-42.199219 42.203125c-13.546875 13.085937-13.921875 34.675781-.835937 48.226563 13.085937 13.546874 34.675781 13.921874 48.226562.835937.28125-.273437.5625-.554687.835938-.835937l32.238281-32.230469c12.140625 25.484375 42.644531 36.304687 68.128906 24.164062 5.1875-2.472656 9.917969-5.796875 13.996094-9.839843h.050781l39.511719-37.667969c41.976562-39.882813 62.007812-97.644531 53.734375-154.953125h36.269531c54.421875-.058594 98.523438-44.160156 98.589844-98.578125v-37.839844h7.988281c33.242188-.035156 60.183594-26.972656 60.222657-60.214844v-14.578125l8.527343-8.527344v315.097657c-10.183593 3.601562-17.007812 13.210937-17.054687 24.011719v8.527343c.046875 10.800781 6.871094 20.410157 17.054687 24.007813v18.621094c0 4.710937-3.816406 8.527343-8.527343 8.527343-4.707032 0-8.527344-3.816406-8.527344-8.527343v-8.523438h-17.050782v8.523438c0 14.128906 11.453126 25.582031 25.578126 25.582031 14.128906 0 25.578124-11.453125 25.578124-25.582031v-18.621094c10.183594-3.597656 17.007813-13.207032 17.054688-24.007813v-8.527343c-.046875-10.800782-6.871094-20.410157-17.054688-24.011719zm-297.566406-83.710938 11.933594 11.9375-48.171875 48.269531-12.054687-12.058593zm-66.414062 54.167969 24.128906 24.121094-15.441406 15.433594c-1.765625-.09375-3.539063-.09375-5.308594 0l-21.445312-21.46875zm-44.976563 93.238281-39.40625 39.398438c-6.746093 6.445312-17.367187 6.445312-24.113281 0-6.65625-6.660157-6.65625-17.453125 0-24.113281l42.195312-42.179688 21.316407 21.316406c0 .9375-.128907 1.859375-.128907 2.796875s.09375 1.851563.136719 2.78125zm4.894531-24.820312-38.273437-38.269531c-6.660156-6.660157-6.65625-17.457032.003906-24.113282 6.660157-6.660156 17.457031-6.660156 24.117188.003906l38.367187 38.367188c-10.683594 4.847656-19.285156 13.359375-24.242187 23.992188zm70.257813 46.132812c-13.503906 12.875-34.738281 12.875-48.242187 0-13.316407-13.320312-13.3125-34.914062.007812-48.230469 13.324219-13.316406 34.917969-13.3125 48.234375.007813 13.3125 13.320313 13.3125 34.90625 0 48.222656zm39.648437-37.804687-12.789062 12.191406c-.28125-19.210938-11.609375-36.539062-29.09375-44.503906l20.308594-20.3125-6.019532-6.019532 76.816407-76.550781c5.679687 50.289063-12.539063 100.332031-49.222657 135.195313zm183.316407-241.140625c-.058594 45.003906-36.53125 81.476562-81.539063 81.527343h-28.035156l109.574219-109.195312zm27.574219-55.148438 40.363281-40.21875c-1.363281 21.675781-18.679688 38.933594-40.363281 40.21875zm-190.136719 165.410157-12.066407-12.066407 258.851563-257.964843c3.363281-3.292969 8.761719-3.242188 12.058594.121093 1.550781 1.585938 2.425781 3.714844 2.4375 5.933594.007812 2.265625-.894531 4.4375-2.507813 6.027344zm273.402343 116.214843c0 4.707031-3.816406 8.527344-8.523437 8.527344-4.710937 0-8.527344-3.820313-8.527344-8.527344v-8.527343c0-4.707032 3.816407-8.527344 8.527344-8.527344 4.707031 0 8.523437 3.820312 8.523437 8.527344zm0 0"/></symbol><symbol id="veranda" viewBox="0 0 463 463"><title>veranda</title><path d="M455.5,392H439v-16.5c0-5.967-3.394-11.148-8.349-13.738c0.226-0.714,0.349-1.473,0.349-2.262V183h16.5 c2.744,0,5.268-1.498,6.583-3.906c1.314-2.408,1.209-5.342-0.274-7.649l-72-112C380.429,57.298,378.052,56,375.5,56h-288 c-2.552,0-4.929,1.298-6.309,3.444l-72,112c-1.483,2.308-1.588,5.242-0.274,7.649C10.232,181.502,12.756,183,15.5,183H32v176.5 c0,0.789,0.123,1.548,0.349,2.262C27.394,364.352,24,369.533,24,375.5V392H7.5c-4.142,0-7.5,3.358-7.5,7.5s3.358,7.5,7.5,7.5h448 c4.142,0,7.5-3.358,7.5-7.5S459.642,392,455.5,392z M367,360v-65h17v65H367z M335,360v-65h17v65H335z M303,360v-65h17v65H303z M175,360V226.606L218.606,183h25.787L288,226.606V360H175z M143,360v-65h17v65H143z M111,360v-65h17v65H111z M79,360v-65h17v65H79z M46.975,360c0.011-0.166,0.025-0.331,0.025-0.5V295h17v65H46.975z M116.394,183L160,226.606V280H47v-53.394L90.606,183H116.394z M277.937,71l23.983,97H161.08l23.984-97H277.937z M372.394,183L416,226.606V280H303v-53.394L346.606,183H372.394z M265.606,183H288 v22.394L265.606,183z M303,205.394V183h22.394L303,205.394z M175,205.394V183h22.394L175,205.394z M160,183v22.394L137.606,183H160z M399,295h17v64.5c0,0.169,0.014,0.334,0.025,0.5H399V295z M416,205.394L393.606,183H416V205.394z M433.763,168H317.372l-23.983-97 h78.017L433.763,168z M91.595,71h78.017l-23.984,97H29.237L91.595,71z M69.394,183L47,205.394V183H69.394z M39,375.5 c0-0.276,0.224-0.5,0.5-0.5h384c0.276,0,0.5,0.224,0.5,0.5V392H39V375.5z"/></symbol><symbol id="cafe" viewBox="-6 0 512 512.00005"><title>cafe</title><path d="m80 282c0 5.523438-4.476562 10-10 10s-10-4.476562-10-10 4.476562-10 10-10 10 4.476562 10 10zm0 0"/><path d="m135.382812 393.144531c-26.472656-16.917969-45.007812-43.050781-52.1875-73.582031-1.265624-5.378906-6.648437-8.710938-12.023437-7.445312-5.375 1.261718-8.710937 6.644531-7.445313 12.023437 8.378907 35.628906 30.003907 66.121094 60.890626 85.855469 4.625 2.957031 10.816406 1.640625 13.808593-3.042969 2.972657-4.652344 1.613281-10.835937-3.042969-13.808594zm0 0"/><path d="m483.921875 206.019531c-11.515625-12.722656-27.960937-20.019531-45.121094-20.019531h-58.800781v-16c0-5.523438-4.476562-10-10-10h-340c-5.523438 0-10 4.476562-10 10v122c0 55.046875 24.984375 106.183594 66.855469 140h-76.855469c-5.523438 0-10 4.476562-10 10s4.476562 10 10 10c5.882812 0 11.140625 3.949219 12.789062 9.605469 8.632813 29.671875 36.269532 50.394531 67.210938 50.394531h240c30.9375 0 58.578125-20.722656 67.210938-50.390625 1.648437-5.660156 6.90625-9.609375 12.789062-9.609375 5.523438 0 10-4.476562 10-10s-4.476562-10-10-10h-96.84375c7.617188-6.160156 14.726562-12.949219 21.296875-20.332031 3.28125.1875 6.535156.292969 9.757813.292969 40.117187-.003907 75.726562-14.644532 103.675781-42.8125 28.574219-28.796876 46.851562-70.078126 51.472656-116.234376 1.707031-17.078124-3.921875-34.171874-15.4375-46.894531zm-103.921875 39.980469h58.800781c.289063 0 .402344.015625.613281.246094.273438.304687.265626.414062.234376.6875-2.707032 27.09375-14.839844 87.472656-68.804688 101.878906 6.078125-18.234375 9.15625-37.269531 9.15625-56.8125zm-1.992188 210.007812c-6.164062 21.183594-25.90625 35.992188-48.007812 35.992188h-240c-22.101562 0-41.84375-14.796875-48.007812-35.988281-.402344-1.378907-.890626-2.730469-1.460938-4.023438h338.9375c-.570312 1.296875-1.058594 2.636719-1.460938 4.019531zm-255.484374-24.007812c-50.957032-28.25-82.523438-81.65625-82.523438-140v-112h320v112c0 58.953125-32.117188 112.039062-82.5 140zm356.9375-181.074219c-6.816407 68.085938-50.121094 137.84375-129.691407 140.917969 4.472657-6.699219 8.5-13.679688 12.035157-20.914062 28.140624-3.691407 51.851562-17.492188 68.839843-40.148438 15.640625-20.859375 25.636719-49.164062 28.90625-81.84375.597657-5.90625-1.265625-11.601562-5.285156-16.089844-4.011719-4.414062-9.503906-6.847656-15.464844-6.847656h-58.800781v-20h58.800781c11.691407 0 22.449219 4.773438 30.292969 13.441406 7.847656 8.667969 11.527344 19.851563 10.367188 31.484375zm0 0"/><path d="m191.710938 85c0 11.699219 3.722656 22.796875 10.480468 31.246094 3.460938 4.328125 9.753906 5.003906 14.054688 1.5625 4.3125-3.449219 5.011718-9.742188 1.5625-14.054688-3.875-4.847656-6.097656-11.679687-6.097656-18.753906s2.222656-13.90625 6.097656-18.75c14.019531-17.523438 14.019531-44.976562 0-62.496094-3.449219-4.3125-9.742188-5.011718-14.054688-1.5625-4.316406 3.449219-5.011718 9.742188-1.5625 14.058594 8.132813 10.164062 8.132813 27.339844 0 37.503906-6.757812 8.449219-10.480468 19.546875-10.480468 31.246094zm0 0"/><path d="m251.710938 85c0 11.699219 3.722656 22.796875 10.480468 31.246094 3.460938 4.328125 9.753906 5.003906 14.054688 1.5625 4.3125-3.449219 5.011718-9.742188 1.5625-14.054688-3.875-4.847656-6.097656-11.679687-6.097656-18.753906s2.222656-13.90625 6.097656-18.75c14.019531-17.523438 14.019531-44.976562 0-62.496094-3.449219-4.3125-9.742188-5.011718-14.054688-1.5625-4.316406 3.449219-5.011718 9.742188-1.5625 14.058594 8.132813 10.164062 8.132813 27.339844 0 37.503906-6.757812 8.449219-10.480468 19.546875-10.480468 31.246094zm0 0"/><path d="m131.710938 85c0 11.699219 3.722656 22.796875 10.480468 31.246094 3.460938 4.328125 9.753906 5.003906 14.054688 1.5625 4.3125-3.449219 5.011718-9.742188 1.5625-14.054688-3.875-4.847656-6.097656-11.679687-6.097656-18.753906s2.222656-13.90625 6.097656-18.75c14.019531-17.523438 14.019531-44.976562 0-62.496094-3.449219-4.3125-9.746094-5.011718-14.054688-1.5625-4.316406 3.449219-5.011718 9.742188-1.5625 14.058594 8.132813 10.164062 8.132813 27.339844 0 37.503906-6.757812 8.449219-10.480468 19.546875-10.480468 31.246094zm0 0"/></symbol><symbol id="compass" viewBox="0 0 59 59"><title>compass</title><path d="M30.5,9.025V7.858c1.721-0.447,3-1.999,3-3.858c0-2.206-1.794-4-4-4s-4,1.794-4,4c0,1.859,1.279,3.411,3,3.858v1.167 C15.177,9.553,4.5,20.55,4.5,34c0,13.785,11.215,25,25,25s25-11.215,25-25C54.5,20.55,43.823,9.553,30.5,9.025z M27.5,4 c0-1.103,0.897-2,2-2s2,0.897,2,2s-0.897,2-2,2S27.5,5.103,27.5,4z M29.5,57c-12.683,0-23-10.317-23-23s10.317-23,23-23 s23,10.317,23,23S42.183,57,29.5,57z"/><path d="M41.78,20.378l-16.97,8.485c-0.026,0.013-0.041,0.04-0.066,0.056c-0.068,0.041-0.12,0.093-0.177,0.149 c-0.056,0.056-0.108,0.109-0.149,0.177c-0.015,0.025-0.042,0.04-0.056,0.066l-8.485,16.97c-0.192,0.385-0.117,0.85,0.188,1.154 c0.192,0.192,0.448,0.293,0.707,0.293c0.152,0,0.305-0.034,0.447-0.105l16.97-8.485c0.026-0.013,0.041-0.04,0.066-0.056 c0.068-0.041,0.12-0.093,0.177-0.149c0.056-0.056,0.108-0.109,0.149-0.177c0.015-0.025,0.042-0.04,0.056-0.066l8.485-16.97 c0.192-0.385,0.117-0.85-0.188-1.154S42.166,20.186,41.78,20.378z M19.009,44.491l6.523-13.045l6.521,6.521L19.009,44.491z M33.468,36.554l-6.521-6.521l13.045-6.523L33.468,36.554z"/></symbol></svg>